<?xml version="1.0" encoding="iso-8859-1"?>
<!-- Generator: Adobe Illustrator 21.1.0, SVG Export Plug-In . SVG Version: 6.00 Build 0)  -->
<svg version="1.1" id="Layer_1" xmlns="http://www.w3.org/2000/svg" xmlns:xlink="http://www.w3.org/1999/xlink" x="0px" y="0px"
	 viewBox="0 0 500 500" style="enable-background:new 0 0 500 500;" xml:space="preserve">
<path style="fill:#D3D3D3;" d="M220.9,319.8c0,0-130.2-9.3-130.2,108.5c41.9,57.4,163.5,56.6,163.5,56.6s120.9,4.7,171.3-60.5
	c0-63.6-56.6-101.5-138-105.4C206.2,315.2,220.9,319.8,220.9,319.8"/>
<path style="fill:#969696;" d="M196.9,320.6c0,0-10.9,38,58.1,38s57.4-38,57.4-38H196.9z"/>
<circle style="fill:#D3D3D3;" cx="256.6" cy="181.5" r="155.8"/>
<path d="M381.4,160.6c0,0-108.5-107-251.1,0C114.8,252.1,186.1,311,252.8,311S401.5,250.5,381.4,160.6z"/>
<path style="fill:#FFFFFF;" d="M265.374,283c-93.1-72.8-66.7-139.5-66.7-139.5C116.574,200.9,145.974,270.6,265.374,283z"/>
<path style="fill:#969696;" d="M293,37.7c0,0-34.1,10.1-74.4,0c-7.8-10.9-1.6-22.5-1.6-22.5s27.9-16.3,74.4,0
	C297.7,23,293,37.7,293,37.7z"/>
<path style="fill:#969696;" d="M138.3,338.8c0,0,18.4,18.9,3,38.3s-43.6,12.5-43.6,12.5S109,358.8,138.3,338.8z"/>
<path style="fill:#969696;" d="M384.3,347.7c0,0-7,9.9-14.5,10.5c6.4,10.5,26.7,36,26.7,36s9.9-3.5,17.4-14.5
	C409.9,366.9,384.3,347.7,384.3,347.7z"/>
<path style="fill:#969696;" d="M316.9,479.1c5.8-43-0.6-68-0.6-68s-107.5-8.1-125,1.7c-3.5,22.7-0.6,63.4-0.6,63.4
	S234.3,493.1,316.9,479.1L316.9,479.1z"/>
</svg>
