<?xml version="1.0" encoding="utf-8"?>
<!-- Generator: Adobe Illustrator 21.1.0, SVG Export Plug-In . SVG Version: 6.00 Build 0)  -->
<svg version="1.1" id="Layer_1" xmlns="http://www.w3.org/2000/svg" xmlns:xlink="http://www.w3.org/1999/xlink" x="0px" y="0px"
	 viewBox="0 0 500 500" style="enable-background:new 0 0 500 500;" xml:space="preserve">
<style type="text/css">
	.st0{fill:#494949;}
	.st1{fill:#010101;}
	.st2{fill:#202020;}
	.st3{fill:#B3B2B3;}
	.st4{fill:#E4E4E4;}
	.st5{fill:#030303;}
	.st6{fill:#5C5C5C;}
	.st7{fill:#848484;}
	.st8{fill:#717071;}
	.st9{fill:#DFDFDF;}
	.st10{fill:#AEAEAE;}
	.st11{fill:#919091;}
	.st12{fill:#416EAD;}
	.st13{fill:#638AFA;}
	.st14{fill:#D1D1D1;}
</style>
<path class="st0" d="M316.5,215.2c-1.5,4.7-4.6,8.3-7.8,11.9c-7.5,8.6-16.3,15.7-26.1,21.5c-2.3,1.3-4.8,2.3-7,4.6
	c12.9,7.9,22.5,19.7,34.5,28.6c1.8,1.4,3.4,3.1,5.8,3.7c-0.8,1.7-1.7,3.5-1.2,5.5c0.2,1,0.6,1.9,1.6,2.2c1.2,0.4,1.7-0.5,2.2-1.3
	c2.3-3.9,4.8-7.8,7.1-11.8c2.8-5.1,7.3-8.6,12.6-10.2c4.5-1.3,9.4-1,14.1-1.5c2.8-0.3,5.7,0.1,7.7,1.6c4.4,3.3,9,2.3,13.5,1.5
	c7.9-1.4,15.5-1.8,22.4,3.4c0.5,0.4,1.5,0.2,2.2,0.3c0,1.2,0.9,2.1,1.5,3c9.4,13.3,9.9,27.1,1.9,41.1c-6,10.4-13.3,19.7-24.3,25.8
	c1.9,3,3.8,5.9,5.6,8.8c6.7,10.8,12.4,22.1,18.1,33.4c1.1,2.1,2.2,3.8,4.7,4.5c2.6,0.8,4.6,2.6,5.7,5.3c2.9,7.2,8.7,10.9,16.4,10.7
	c6.9-0.1,13.8-0.6,20.7,0.7c6.2,1.2,11,4.4,14.6,9.4c1.6,2.2,3.4,4,5.7,5.6c6.6,4.8,7.8,8.7,5.1,16.4c-3.9,11.1-10.6,20.3-18.4,29
	c-1.8,2-4.1,2.7-6.7,2.6c-11.4-0.2-21.8-3.6-31.6-9.2c-13.1-7.4-23.1-18.2-33.2-29.1c-1.2-1.3-2.2-2.3-4.2-2.5
	c-5.5-0.6-7.1-2.1-7.9-7.3c-0.3-2.1-1.2-3.5-2.8-4.7c-9.6-7.7-19.4-15-28.3-23.6c-1.6-1.5-3-1.7-5.1-0.8
	c-18.7,7.8-37.7,8.2-56.7,1.5c-4-1.4-7.4-1.1-11,0.6c-4.3,2-8.9,3.6-13.1,5.9c-5.9,3.2-11.6,3-17.7,0.7c-14.5-5.4-27.8-13-40-22.5
	c-23.3-18.2-44.1-38.7-59.4-64.3c-0.5-0.8-1-1.6-1.6-2.4c-5.2-8.3-5.9-16.7-1.3-25.6c3.2-6.1,6-12.4,10.2-18c1.7-2.3,3.2-4.7,5-7.3
	c-3.5-1.7-6.6-3.2-9.6-4.8c-14.4-7.9-27.5-17.5-38-30.4c-11.6-14.2-19.6-30.2-23.4-48.2c-0.4-2.1-0.9-4.1-2-6
	c-5.7-10.2-6.1-21.2-4.2-32.4c1-6.1,1.7-12.5,5.3-17.5c4.6-6.3,6.4-13.7,9.6-20.6c12.7-27.4,32.8-47.4,59.9-60.5
	c2.7-1.3,5.4-2,6.5-5.6c0.7-2.3,3.5-3.4,5.7-4.7c8.1-4.7,16.8-7.3,26.2-8.2c17.7-1.6,34.8,1.2,51.6,6.5c12.3,3.9,23.8,9.4,34,17.6
	c3.3,2.6,7.2,4.4,10.7,6.7c22.4,15,37.5,35.3,45.6,61c0.3,0.9,0.6,1.8,0.3,2.8c-1.5,0-2.3-1.2-3.3-2.1c-8.2-7.4-15.1-9.5-25.5-1.9
	c-7.6,5.6-16.6,7.8-25.9,8.3c-12.4,0.8-24.8-0.4-37-2.9c-4.8-1-9.7-2.4-14.7-1.4c-0.4-0.4-0.8-1-1.3-1c-15.3-2.5-30.2-1.9-44.4,5
	c-4.9,2.4-10,4.9-13.1,9.9c-5.4,2.5-9.1,7-12.2,11.8c-14,21.5-17,44.4-7.5,68.4c4.2,10.6,10.3,20.1,19.6,27.1
	c9.2,6.9,19.8,10.6,30.8,13.5c1.5,0.4,3.5,1,4.5-1.1c6.1,4.2,12.5,3,19,1.2c6.2,0.3,11.5-2.6,17-4.7c11.4-4.3,21.5-11,31.7-17.4
	c9.4-5.9,19.3-10.5,30.2-12.1C303,218.1,309.8,216.8,316.5,215.2z M289.3,238.5c0.4-0.3,0.8-0.7,1.3-1c1.6-0.1,2.6-1,3.4-2.3
	c5.1-3.7,10-7.6,13.9-13.6c-3.1,0.4-5.5,0.7-7.9,1c-1.2,0.2-2.1,0.8-2.7,1.9c-1.9,3.5-3.8,7-5.7,10.5c-0.9,0.4-1.2,1.2-1.3,2.2
	c-0.4,0.4-0.7,0.8-1.1,1.2c-0.1,0.2-0.3,0.4-0.4,0.6C288.9,238.8,289.1,238.7,289.3,238.5z M87.6,192.4c-0.1-0.1-0.1-0.3-0.2-0.4
	c0-0.1-0.2-0.1-0.3-0.1C87.3,192,87.4,192.1,87.6,192.4c0,0.9,0.1,1.8,1,2.4c1.2,6.6,5,12,8.2,17.6c1.6,2.7,2.5,6.1,5.8,7.7
	c0.6,1,1.1,2,1.7,2.9c6,8.6,14,15.2,22.3,21.4c23.5,17.6,50.3,24.5,79.3,24.2c1.3,0,2.9,0.3,3.6-1.1c1.4-2.6,3.4-4.9,3.2-8.5
	c-13.6,0.5-26.2-1.9-38.1-7.9c-8.8-4.4-17.2-9.1-23.4-17.1c-13-16.9-18.4-35.6-16.5-57c2.4-27,21.5-51.9,47.1-60.6
	c13.3-4.5,26.6-4.9,40.3-2.8c2,0.3,4,1.2,5.9,0c-2.8-12.5-13.6-31.9-22.8-41c-1.6-2.4-3.2-4.6-6.1-5.6c-2.5,4.6-3,4.8-6.6,1.4
	c-2.9-2.8-5.7-5.7-8.6-8.5c-2.1-2.1-4.4-3.7-7.6-3.5c0-1.7-1-2.9-2.3-3.8c-4.6-2.8-9.2-5.5-13.8-8.2c-1.8-1-3.7-0.8-5.6-0.1
	c-10.3,3.8-19.6,9.7-28,16.6c-7.1,5.7-13.8,12-19.6,19.2c-8.9,11-15.4,23.3-20,36.5c-0.9,2.5-1.5,5.6,0.3,7.7c2.7,3.1,5,6.9,9.3,8.2
	c0.8,3.9,4.7,4.6,7.1,6.9c2.6,2.4,6.4,3,9.3,5.2c-3.7,4.6-6.4,10.5-7.2,15.1c-2.4,13.6-1.1,26.9,1.9,40.2c0.4,1.9,1,3.7,1.4,5.5
	c0.6,2.7-0.2,3.6-3,3c-2.4-0.5-4.9-0.8-6.9-2.5c-3.5-3.8-6.9-7.6-10.4-11.4C88.7,193.6,88.5,192.8,87.6,192.4z M346,333.2
	c0.6-0.2,1.2-0.4,1.9-0.6c6.8-3.1,13.6-6.2,19.9-10.2c4-2.5,4.8-4.8,3.7-9.9c-3,2-6.1,3.9-9,6.1c-1.4,1-2.9-2.8-4.2,0.5
	c-0.7,1.8-2.7,3.1-4.2,4.7c-2.1,2.2-4.2,4.5-6.3,6.7c-1.1,0.4-1.9,1.1-2.4,2.2c-0.2,0.2-0.6,0.6-0.6,0.7
	C345.3,334,345.7,333.6,346,333.2z M270.8,261.5L270.8,261.5c2.2,2.2,5.4,3,7.9,4.9c1.5,1.2,3,0.1,3.9-1c0.8-1.1-0.6-1.4-1.4-1.7
	c-0.7-3.8-4.2-4.6-6.9-6.1c-4-2.4-4.4-2.2-8.4,1.7c0.9,1.2,2.3,1.1,3.6,1.1C270,260.7,270.4,261.1,270.8,261.5z M302,339.9
	c2,0.2,3.7-0.6,5.4-1.4c2.4-1.2,1.4-3.1,0.6-4.8c-0.9-2.1-2.1-1.6-3.5-0.5c-2.2,1.8-5.2,2.2-7.2,4.3c-3.1,0.8-6.8,0.2-9.2,3.2
	c-1.9,0-3.7,0-5.1,1.7c-1.2,1.4-2.8,2.7-4.7,2.9c-3.1,0.4-5,2.4-6.6,4.8c-5,2.9-9.3,7-14.7,9.3c-3.5,2.4-7.3,4.1-11,6
	c-3.3,1.8-3.4,2.2-0.1,4.5c6.3,4.3,12.7,8.5,18.6,13.3c7.9,6.4,17.5,9.2,27.1,11.6c1.5,0.4,3.3,0.5,5.1-0.3
	c-5.2-6.5-7.1-13.7-7.6-21.5c-0.4-7.1,0.7-14,2.2-20.9c2.1-1.4,2.7-3.9,4.5-5.5c2.1-1.8-0.4-2.3-0.8-3.5
	C297,341.4,299.8,341.2,302,339.9z M403.4,409.6c4.6-2,4-6.4,4.4-10.2c0.2-2.2-1.6-3.5-4-3.8c-0.5,2.2-1.1,4.2-1.5,6.2
	c-0.4,2-1.7,3.8-1.4,6c-4.2,4.6-8.4,9.2-12.6,13.8c-3.9,1-7.8,2-12.2,3.1c6,2.7,10.2,2.1,13.5-1.7
	C396.1,421.7,401.7,416.3,403.4,409.6z M269.5,320.2c-0.1-1.5,0.1-3.1-0.3-4.5c-0.5-2.2-2-2.5-3.8-1c-2.3,1.9-2,4.4-1.7,6.9
	c1.1,6.5,3.8,12.1,9.4,16c0.7,0.9,1.3,1.8,2.2,2.5c1.1,1,2.4,1.1,3.6,0.1c1.4-1.1,1.5-2.6,0.4-4c-1-1.2-1.5-3.1-3.5-3.4
	C274.4,328.3,271.9,324.3,269.5,320.2z M202.6,305.5c0.5,0.7,1.3,1.9,2.1,1.1c0.8-0.8-0.3-1.6-1.2-2c-0.6-2.1-2.4-3-3.9-4.2
	c-0.5-3.1-3.7-4-4.9-6.6c0.3-2.1-0.7-3.6-2-5.1c-3-3.3-6.4-6.1-10.1-8.4c-5.9-3.6-12.3-5.9-19.5-5.1c-3.3,0.4-5.7,1.9-7.7,4.4
	c-0.3,0.4-0.5,1.1-0.4,1.5c0.2,0.9,1.2,1.1,1.8,0.9c2.8-1.1,5.5-0.6,8.3,0.3c2.6,0.9,4.3,3.1,6.6,4.4c3.2,5,6.5,9.9,8.4,15.7
	c2.7,8.4,1.8,16.2-3.4,23.4c-0.8,1.1-1.7,2.1-1.5,3.6c-2-0.3-3.7,0.7-5.5,1.3c-1.4,0.5-1.8,1.7-1,2.7c2.6,3.1,5,6.7,9.9,8.2
	c0-3.7,0-6.9,0-10c0.5-0.6,1.2-1.1,1.4-1.7c2.2-6.9,6.2-12.7,11.3-17.7c1.8-1.1,3.5-2.3,5.3-3.2c2.1-1,2.3-2.2,0.8-3.9
	c-0.5-0.6-0.6-1.3-0.4-2.1l0,0C199.3,303,200.5,305.2,202.6,305.5z M229.3,278.8c-6.4,1.7-12.9,2.8-19.5,3.4
	c-5.2,0-10.5-0.5-16.2,0.1c0.9,2.8,2.9,4.1,4.3,5.7c4.6,5.2,9.4,10.6,10.9,17.3c1.1,4.9,3.8,7.1,7.4,9.2c1.2,0.7,2.3,1.4,3.4,2.2
	c9.1,6.5,18.6,5.9,28.3,1.8c1.8-0.4,3.6-0.7,5.3-1.1c0-2-1.4-2.1-2.3-2.6c-6-3.3-11.6-7.3-17.4-11.1c-4.6-3-9.2-6-14.4-8.1
	c0-0.5-0.2-0.9-0.8-0.9c0.4-1.6-2.9-2.7-0.8-4.5c3.9-3.2,6.8-7.7,11.8-9.4c2.5-0.1,4.4-2.2,6.9-2.2c1,0.4,1.2,1.3,1.2,2.3
	c-2.1,2.1-5.7,1.9-7.6,5c8.1,4.4,15.7,9.5,23.2,14.7c1.2,0.8,2.4,1.4,3.7,0.7c5-2.2,10.2-4.1,13.8-8.6c2.3,1.3,5.3,1.6,7.2,3.8
	c-1.3,2.9-2.8,5.8-4,8.7c-0.7,1.6-1.6,3.3-1.4,4.8c0.9,5.6,1.5,11.3,5.6,15.8c0,2.2,1.8,3.3,2.7,4.9c2.3,4.3,5.9,5,10.2,3.8
	c4.6-1.3,9-3.2,13-5.9c1.9-1.3,3-2.8,2.9-5.2c-0.1-5.8,1.1-11.4,3.8-16.6c1.4-2.6,1.1-4.7-1.5-6.3c0.1-2.4,1.5-1.7,2.7-1
	c0.9,0.5,1.7,0.8,2.4-0.3c0.6-0.8,0.8-1.7,0.3-2.7c-0.6-1.2-1.6-2.1-2.8-2.8c-4.3-2.4-8.6-2.7-13-0.1c-2.6,1.6-4.6,4-7.5,5.1
	c-0.6-0.9-1.2-1.7-1.8-2.6c1.7-0.1,3.1-0.6,3.4-2.5c1.5-0.1,2.4-0.9,2.5-2.5c1.9-0.1,3.6-0.6,4.3-2.6c-3.5-2.8-7.4-1.5-11-1.8
	c-1.6,0-3.4,0.3-3.8-2c1.9-0.7,3.7-1.5,5.6-2.2c-0.5-2.3-2.1-3.5-3.5-4.7c-7.1-6.5-14.8-11.9-23.8-15.5c-3.6-1.4-6.2-0.7-8.9,1.5
	c-2.8,2.3-5.6,4.5-8.5,6.8c-1.5-0.4-2.9-0.7-4.4-1.1c-0.5-1.4-1.7-1.4-2.9-1.1c-8.3,2.3-16.9,3.1-25.4,4.3
	c-12,0.7-23.8-1.1-35.7-1.5c12.1,6.8,25.1,7.9,38.5,6.2c6.8-0.2,13-2.7,19.5-4.5c0,1,0.1,2.1,0.1,3.1
	C233.2,276.9,231.2,277.9,229.3,278.8z M462.6,441.9c-1.6,0.7-2,2.3-2.6,3.6c-2.9,6.1-7,11.3-11.9,16c-1.1,1-2.5,1.8-2.8,3.5
	c5.2,3.5,5.6,3.5,9.3-1c2.1-2.5,4.1-5,6-7.6c0.6-0.8,1.7-1.7,0.4-2.9c0.6,0.2,1.2,0.2,1.5-0.3c4.2-5.5,7.3-11.6,8.8-18.4
	c0.9-3.8-0.8-6-5.3-7.9C465.9,432.1,463.3,436.8,462.6,441.9z M362.5,301.8c2.7-8.5-1.8-14.7-7-20.4c-3.6-4-6.9-5.1-10.8-4.3
	c6.4,7.8,12.5,15.6,13.8,25.9c-0.4,2.3-1.1,4.5-2.4,6.4c-6.6,9.7-14,18.7-23.8,25.4c-2.9,2-6.2,3.3-9.3,4.9c3.1,0.9,5.6-0.1,8.1-1.5
	c11.5-6.4,20.5-15.4,27.6-26.3C360.6,308.9,362.2,305.6,362.5,301.8z M367.4,283.4c-3.3-7.5-8.7-11.4-14.7-11
	c2.5,2.7,5.2,5.7,7.9,8.6c0.8,1.5,1.6,3,2.6,4.4c3.5,5.1,4.9,10.6,3.6,16.8c-1,4.9-3.4,9-6.5,14.4c4.7-2,6.6-5,8.9-7.6
	c7.2-8.5,7.1-15.5-0.2-24C368.6,284.5,368,284,367.4,283.4z M402.1,293.7c-1.1-12.1-10.2-20.7-20.1-18.7c1.8,2,3.8,3.3,6.2,4
	c0,1.1,0.2,2.2,0.8,3.2c5.7,8.6,6.3,17.9,3.9,27.6c-1.2,1.1-2.2,2.5-2.6,4.1c8.2,2.1,8.2,2.1,11.3-5.5c0.3-0.7,0.3-1.5,0.4-2.2
	c0.2-2.1,0.1-4.1,0.8-6.2C403.5,298,404.1,295.6,402.1,293.7z M372,338.7c1.2,2.9,3,3,5.4,1.3c7-4.9,12.5-11.2,17.3-18.1
	c1.9-2.8-0.7-2.9-2.8-2.7c-0.5-0.3-0.9-0.7-1.5-0.9c-5.8-1.8-5.8-1.8-9.7,2.9c-1.6,2-3.8,3.2-6.4,3.4c-4.6,0.4-7.9,3.1-11.9,6
	C366,333.7,369,336.2,372,338.7z M371.8,281.4c5.1,9.7,10.3,19.4,12.3,30.6c3.1-0.8,4.8-2.5,5.4-5.4c1.9-9.4-0.2-17.8-6.3-25.2
	c-0.8-1-1.7-2.2-3.3-1.6c-3.6-4.1-6.7-4.9-11.2-3C369,278.8,370.4,280.1,371.8,281.4z M170.6,325.4c2.9-0.9,4.1-3.3,5.2-5.7
	c4-9.4-1.2-26-9.8-31.6c-0.3-0.2-0.7-0.2-1.1-0.3c-1.7-2.6-4.2-2.3-6.6-1.6c-4.9,1.4-7.5,5-8.2,9.9c-1.5,11,2.9,20.1,9.5,28.4
	C162.4,328.2,165.9,328.1,170.6,325.4z M183.4,335.1c-0.1,1.5-0.3,3-0.4,4.5c-0.4,5,1.3,8.8,6,11.2c4,2.1,7.9,4.6,11.8,6.9
	c0.8,0.5,1.7,0.8,3.1-0.3c-1.2-3.3-1-7.1-1.2-10.8c0.8-7.3,4.3-13.4,8.2-19.4c2.5-1.9,5-3.8,7.1-6.5c-4.3-3-8.4-5.7-12.4-8.6
	c-1.9-1.4-3.8-1.7-5.8-0.7c-2,1-4.2,1.9-5.3,4C187.8,320.4,184.7,327.3,183.4,335.1z M278.8,67.9c0.5,0.8,1,1.6,1.6,2.3
	c6.1,7.6,12.3,15.1,17.3,23.5c2.1,3.5,3.5,7.2,5.3,10.8c0.6,1.2,1.2,2.7,2.8,2.2c4.9-1.7,9.6-0.2,14.7,0.8
	c-6.1-14-13.5-26.7-25.5-36.2c0-3.1-3-3.6-4.6-5.3c-2.6-2.8-5.7-4.9-9.1-6.8c-1-0.6-2.3-1.1-3,0.2c-0.8,1.7-1.3,3.5-1.6,5.4
	C276.5,66.3,277.6,67.2,278.8,67.9z M301.8,345.5c-3.1,2.7-5.2,6.1-6.4,9.8c-1.9,5.9-4.1,11.8-1.8,18.2c0.3,6.9,2.6,13.1,6.9,18.5
	c2.4,3,5.3,5,9.4,4.3c5.1-0.8,10.2-1.6,15.3-2.5c1.2-0.2,2.7-0.5,2.9-2.5c-6.6-6.8-9.4-15.4-10-24.8c1.4-2.8,0.8-6,1.5-8.9
	c1-4.5,3.3-8.3,5.5-12.8c-2.5-0.2-4.4-0.9-6.5-0.4C314.1,340.8,307.1,341.2,301.8,345.5z M237.3,335.3c0.2,9.3,5.7,15.5,12.4,20.9
	c1.4,1.1,2.8,1,4.2,0.1c5.2-3.2,10.4-6.4,15.1-10.4c2.2-1.9,2.5-3.5,0.3-5.7c-4.7-4.7-7.9-10.3-9.7-16.6c-0.2-1.4,0.3-3-1.2-4.2
	c-4.9,1.9-10,3.6-15.1,4.8c-5.5,1.4-5.5,1.4-5.9,7C237.2,332.6,237.3,334,237.3,335.3z M88.5,184.5c3.7,8.1,8.3,13.9,13,16.1
	c-4.2-18.9-7.8-37.7,4.4-55.3c-3.5-2.2-6.8-4.2-10-6.2c-5.1-3.9-9.4-8.7-13.6-13.8C71.6,142,74.4,167.4,88.5,184.5z M244.6,358.3
	c-5.5-6.1-10-12.7-11.8-20.8c0.2-3.2,0.5-6.5,0.7-9.7c-1.5-1.2-3.3-0.8-5-0.7c-1.8,0-4.2,0-4.8-1.2c-1.5-3-3-1.8-4.5-0.5
	c-1.8,1.4-3.8,2.7-4.3,5.2c-6.3,5.6-8.2,12.7-7.4,20.8c-0.1,4.9,1.5,9.3,6,11.6c11.1,5.7,21.8,3.8,32-2.5
	C247,359.5,246,358.6,244.6,358.3z M384.9,417c5.8-2.3,9.4-6.6,11.6-12.3c3.5-5.4,4.1-10.8,0.8-16.6c-5-8.8-9.2-18.1-14.7-26.7
	c-0.8-1.2-1-3-3.1-3.4c-0.7,3.2-1.4,6.3-2.1,9.4c-2.2,4.2-4.2,8.4-7,12.2c-1.8,2.4-4.5,4.1-5.7,6.9c-5.7,2.9-11.2,6.1-17.9,8.1
	c8.8,8.6,18,15.4,26.9,22.6C377.8,420.7,379.8,420.4,384.9,417z M215.4,267.2c1.3,0,2.7,0.2,4,0.1c14.1-1.2,27.3-5.7,40.3-10.9
	c12.8-5.2,22.2-14.1,29.6-25.4c1.3-1.9,2.7-3.7,3.1-6.4c-4.3-0.3-7.9,1.5-11.5,3.1c-8.2,3.8-15.8,8.6-23.3,13.6
	c-9.9,6.5-20.4,11.6-31.8,14.5C219.1,257.5,216.3,261,215.4,267.2c-0.4,0.3-0.4,0.4-0.1,0.4C215.4,267.6,215.4,267.3,215.4,267.2z
	 M253.7,48c3.6,0.3,7.1,1.7,12.2,1.3c-5.8-4.8-11.2-7.5-16.8-10C234.4,32.8,219,29.1,203,27.8c-13.5-1.1-26.8,0.2-39.2,6.6
	c-1.8,0.9-3.9,1.6-5,3.8c4.1,3.2,8.8,5,12.9,7.6C180.2,51.2,188,57.3,195,65c6-9.9,14.8-13.9,25-16C231.1,46.7,242.4,46.5,253.7,48z
	 M313,329.6c0.6,5.2,1.9,6.4,6.8,6.1c1.7-0.1,3.4-0.7,5-1.4c5.2-2.2,9.7-5.4,13.7-9.4c4.6-4.6,8.9-9.5,12.6-14.9
	c5.2-7.5,1.5-21.4-7-25.7c-0.2-0.1-0.4,0-0.6-0.1c-0.7-4-3-6.9-6.8-7.5c-3.9-0.7-6,2.5-7.9,5.5c-5.5,8.9-10.6,18.1-15.3,27.4
	c-2.9,5.8-2.5,11.8-2.2,17.9C311.2,328.8,312,329.3,313,329.6z M145.2,290.3c1.2-6.3,4.2-11.9,8.9-16.1c3.2-2.9,3-5.5,1.9-9
	c-8,4.9-17,20-19.9,33.3c-0.5,3,0.3,5.6,1.6,8.3c6.3,13,14.6,24.8,24.3,35.4c16.2,17.7,33.8,33.9,54.4,46.4
	c3.6,2.2,7.1,4.7,11.6,4.5c0.2,1.3,1,2,2.1,2.5c4.8,2.5,10,3.7,15.2,5.1c0.7,0.2,1.6,0,2.2-0.2c5.6-2.4,11.3-4.7,16.8-7.3
	c2.3-1.1,2.3-2.9,0.3-4.4c-0.9-0.7-2-1-3-1.7c-2.4-1.5-4.3-1.3-5.4,1.6c-0.6,1.5-1.4,3-3.2,3.4c-0.2-0.4-0.4-0.6-0.4-0.7
	c-0.1-1.2,0.6-2.2,1.1-3.2c1.9-4.7,1.7-5.6-2.3-8.6c-2.1-1.6-4.3-3.2-6.4-4.8c-4.5-3.3-9-6.3-15.1-3.9c-1.6,0.7-3.9,0.4-5.7-0.1
	c-5.2-1.2-10.4-2.4-15.2-4.9c-2.3-1.2-4.5-2.1-7.1-1.8c-0.9-0.7-1.7-1.6-2.6-2.1c-15.4-8.1-29-18.6-40.6-31.5
	c-6.2-6.9-10.5-15-12.7-24.1C144.5,301,145.3,295.6,145.2,290.3z M373.4,362.1c2.9-3.7,3.9-8.2,1.6-12.2c-2.8-4.9-6.4-9.4-11.2-12.7
	c-5.1-3.5-8.3-5.7-15.8,0.3c-3.7,0.5-6.5,3.2-10.1,3.9c-2.9,0.6-5.1,2.4-7.1,4.6c-5.1,5.4-7.8,11.7-7.1,19.2
	c-1.6,4.6,1.2,16.8,4.5,19.7c0.6,0.5,1.4,1,2,0.3c2-2.3,3.2-0.4,4.7,0.8c3.9,3.3,8.2,5.6,13.4,3.4c4.1-1.7,8.8-2.3,11.3-6.7
	C367.6,378.1,372.5,371.5,373.4,362.1z M441.4,461.4c10.3-7,16-17.2,19.7-28.7c2.6-8,1.4-11.8-5.4-16.9c-2.2-1.7-4.7-2.6-7.3-3.3
	c-6.8-1.7-13.6-1.4-20.5-0.7c-5.1,0.5-10.2,0.9-15.3-0.9c2.1-3.1,2.1-3.1-1.9-5.4c-1.5,4.6-3.7,8.8-6.9,12.4c-2.5,2.9-5.3,5.5-8,8.2
	c-2.9,1.3-5.9,2.6-8.6,3.9c-0.2,1.4,0.5,2.1,1.2,2.8c4.3,4.3,8.7,8.6,12.9,13c7.8,8.2,17.5,12.8,28.2,15.6
	C433.5,462.3,437.5,463.2,441.4,461.4z M210.7,72.7c7.6,9.7,14.3,19.9,18.7,31.5c1.1,2.9,2.2,5.7,3.2,8.6c0.6,1.8,1.8,2.9,3.7,3.2
	c10.6,1.8,21.2,3.8,32,3.2c10-0.5,19.9-1.7,28.6-7.5c3.7-2.4,3.8-2.5,2-6.3c-7.3-16.1-18-29.8-30.5-42.1c-4.1-5.5-8.9-10.2-16-10.8
	c-13-1.3-26-1.5-38.7,2.8c-3.1,1.1-6.1,2.5-8.7,4.4c-2.7,1.9-2.8,3.2-0.7,5.7C206.4,67.8,208.6,70.2,210.7,72.7z M252.9,310.6
	c1.5-2.6,0.2-4.4-1.8-5.8c-2.5-1.8-5-3.5-7.5-5.3c-4.9-3.6-10.3-6.5-15.6-9.6c-1.9-1.1-3.8-1.2-5,0.9c-1.2,2.2,1.1,2.9,2.3,3.9
	c0.1,0.1,0.3,0.2,0.5,0.3c7.7,3.9,14.7,8.8,21.9,13.5C249.3,309.4,250.8,310.7,252.9,310.6z M302,285.6c1.3-0.1,2.2-0.5,2.7-1.3
	c0.8-1.1-0.3-1.6-0.9-2.2c-4.5-4.1-9-8.1-13.6-12.2c-0.7-0.6-1.5-1.2-2.4-1.5c-1.1-0.3-2.4-0.2-3.1,0.9c-0.8,1.3,0.2,2.2,1.1,2.8
	c3.5,2.4,6.2,5.6,8.7,9C296.5,283.8,299.7,284.2,302,285.6z M378,304.8c-3.5,4.4-2.1,9.4-1.7,14.4
	C379.9,314.9,379.3,309.9,378,304.8z M270.9,300c-9.2,2.2-12.3,4.7-12.2,9C262.4,307.5,267.7,303.7,270.9,300z M267.1,54.9
	c1.4,3.3,2.7,5,5,5.6c0.5,0.1,1-0.5,0.9-1.1C272.6,56.6,270.4,56.2,267.1,54.9z M164,270.5c0.6,0,1.3-0.2,1.1-0.8
	c-0.3-1.1-1.1-1.8-2.3-2.1c-0.7-0.1-1.1,0.3-1,0.9C161.9,269.9,162.9,270.4,164,270.5z M334.4,389.7c-0.2,0-0.4,0.1-0.5,0.2
	c0,0,0.1,0.3,0.1,0.4c0.2,0,0.4-0.1,0.5-0.2C334.5,390,334.4,389.8,334.4,389.7z M102.3,202c-0.1-0.1-0.2-0.2-0.3-0.4
	c-0.1,0.1-0.3,0.2-0.3,0.3c0,0.1,0.2,0.2,0.3,0.4C102.1,202.2,102.2,202.1,102.3,202z"/>
<path class="st1" d="M221.8,118.7c5-1,10,0.4,14.7,1.4c12.2,2.6,24.6,3.7,37,2.9c9.3-0.6,18.2-2.7,25.9-8.3
	c10.4-7.6,17.3-5.5,25.5,1.9c1,0.9,1.8,2.1,3.3,2.1c7.7,15.8,6.6,32.4,4.5,49.1c-2.1,17-7.6,32.8-16.3,47.5
	c-6.7,1.6-13.4,2.9-20.2,3.9c-10.9,1.7-20.8,6.2-30.2,12.1c-10.2,6.4-20.4,13.1-31.7,17.4c-5.5,2.1-10.8,5-17,4.7
	c-15.7-28.5-19.3-58.6-12.2-90.1C208.7,147.6,215.1,133.1,221.8,118.7z"/>
<path class="st2" d="M398.1,275.2c-0.8-0.1-1.7,0.1-2.2-0.3c-6.9-5.2-14.5-4.8-22.4-3.4c-4.5,0.8-9.2,1.8-13.5-1.5
	c-2-1.5-5-1.9-7.7-1.6c-4.7,0.5-9.7,0.1-14.1,1.5c-5.3,1.6-9.7,5-12.6,10.2c-2.2,4-4.7,7.8-7.1,11.8c-0.5,0.8-1,1.7-2.2,1.3
	c-1-0.4-1.4-1.2-1.6-2.2c-0.4-2,0.4-3.7,1.2-5.5c2.9-5.4,5.9-10.8,8.8-16.2c4.4-8.1,10.7-13.8,19.8-16.4c6.5-1.8,12.9-3.7,19.6-4.4
	c11.3-1.2,22.5-2.4,33.9-2.4c1.5,0,3.1,0,4.6,0.1c6.5,0.7,8.8,4.8,5.8,11.1C405.4,263.4,401.9,269.4,398.1,275.2z"/>
<path class="st3" d="M99.2,205.9c2,1.7,4.5,2.1,6.9,2.5c2.8,0.5,3.5-0.3,3-3c-0.4-1.9-1-3.7-1.4-5.5c-3-13.3-4.3-26.7-1.9-40.2
	c0.8-4.6,3.6-10.5,7.2-15.1c-2.9-2.2-6.6-2.8-9.3-5.2c-0.2-3.1,1.5-5.6,3.1-7.9c8.7-13,19.1-24.4,31.7-33.7
	c10.1-7.5,21-13.5,32.7-17.9c10.9-4.1,22.1-7.6,34-7.4c9.2,9.1,20,28.5,22.8,41c-2,1.1-4,0.3-5.9,0c-13.6-2.1-27-1.8-40.3,2.8
	c-25.6,8.8-44.6,33.7-47.1,60.6c-1.9,21.4,3.5,40.1,16.5,57c6.2,8,14.7,12.7,23.4,17.1c11.9,6,24.5,8.5,38.1,7.9
	c0.3,3.6-1.8,6-3.2,8.5c-0.8,1.4-2.4,1.1-3.6,1.1c-29,0.3-55.8-6.5-79.3-24.2c-8.3-6.2-16.3-12.8-22.3-21.4c-0.6-0.9-1.2-2-1.7-2.9
	c-0.1-3.9-2.4-7.1-3.6-10.6C98.6,208.1,97.7,207,99.2,205.9z"/>
<path class="st4" d="M221.8,118.7c-6.7,14.4-13.1,29-16.7,44.6c-7.2,31.6-3.5,61.7,12.2,90.1c-6.5,1.7-12.9,2.9-19-1.2
	c-22.8-24.6-34.2-54-37.1-87c-1-10.9,0.5-21.8,1.9-32.6c3.1-5,8.2-7.5,13.1-9.9c14.1-6.9,29.1-7.5,44.4-5
	C221,117.7,221.4,118.3,221.8,118.7z"/>
<path class="st4" d="M268.4,63.3c12.5,12.4,23.2,26,30.5,42.1c1.8,3.8,1.6,3.9-2,6.3c-8.7,5.7-18.5,7-28.6,7.5
	c-10.8,0.5-21.4-1.5-32-3.2c-1.9-0.3-3.1-1.4-3.7-3.2c-1-2.9-2.1-5.8-3.2-8.6c-4.4-11.6-11.1-21.8-18.7-31.5
	c0.7-4.1,3.8-6.2,7.1-7.6c10.2-4.4,21.2-4.6,32-4.7C256.1,60.4,262.3,61.9,268.4,63.3z"/>
<path class="st5" d="M163,132.5c-1.4,10.8-2.8,21.7-1.9,32.6c2.9,33,14.4,62.4,37.1,87c-1.1,2.1-3,1.5-4.5,1.1
	c-11-2.9-21.6-6.7-30.8-13.5c-9.3-7-15.5-16.5-19.6-27.1c-9.5-24-6.5-46.9,7.5-68.4C154,139.5,157.6,135,163,132.5z"/>
<path class="st4" d="M395.9,426.1c2.7-2.7,5.5-5.3,8-8.2c3.2-3.6,5.4-7.8,6.9-12.4c4,2.3,4,2.3,1.9,5.4c5.1,1.8,10.2,1.4,15.3,0.9
	c6.9-0.7,13.7-1,20.5,0.7c2.6,0.7,5.1,1.6,7.3,3.3c6.7,5.1,8,8.9,5.4,16.9c-3.7,11.5-9.4,21.7-19.7,28.7c-3.7-4.1-8.9-5.7-13.8-7.6
	c-8.8-3.5-16.4-8.7-21-17C403.9,432,400.6,428.6,395.9,426.1z M429.2,450.9c3.3-1,5.1-3.6,6.4-6.6c1.9-4.5,3.7-9,5.5-13.5
	c0.4-1.7,1.8-3.2,0.9-5.2c-1.6,1.1-2,2.7-2.1,4.3c-3.8,6.8-7.5,13.6-11.3,20.5c-0.2,0.2-0.4,0.4-0.7,0.6
	C428.4,451.5,428.8,451.4,429.2,450.9z"/>
<path class="st6" d="M96.6,132.5c-4.3-1.4-6.6-5.1-9.3-8.2c-1.8-2.1-1.2-5.2-0.3-7.7C91.6,103.2,98.1,91,107,80
	c5.8-7.2,12.5-13.5,19.6-19.2c8.5-6.8,17.7-12.7,28-16.6c1.9-0.7,3.8-0.9,5.6,0.1c4.7,2.6,9.3,5.4,13.8,8.2c1.3,0.8,2.3,2,2.3,3.8
	c-1.2,0.5-2.4,1.1-3.7,1.5c-20.9,6-37.9,17.9-51.9,34.2c-4,4.6-7.9,9.2-11.1,14.5C104.6,114.8,99.9,123.2,96.6,132.5z"/>
<path class="st7" d="M96.6,132.5c3.3-9.2,8-17.7,13-26c3.2-5.3,7.1-9.9,11.1-14.5c14-16.3,31-28.2,51.9-34.2c1.3-0.4,2.5-1,3.7-1.5
	c3.2-0.2,5.5,1.5,7.6,3.5c2.9,2.8,5.7,5.7,8.6,8.5c3.6,3.3,4.1,3.2,6.6-1.4c2.8,1,4.5,3.3,6.1,5.6c-11.9-0.1-23.1,3.4-34,7.4
	c-11.7,4.3-22.6,10.4-32.7,17.9c-12.6,9.3-23,20.7-31.7,33.7c-1.6,2.3-3.3,4.8-3.1,7.9C101.3,137.1,97.4,136.3,96.6,132.5z"/>
<path class="st8" d="M323.7,365.2c-0.6-7.5,2-13.8,7.1-19.2c2-2.1,4.1-4,7.1-4.6c3.6-0.7,6.4-3.4,10.1-3.9c2-0.3,3.7,0.6,5.5,1.4
	c10.3,4.6,16,13.1,19.9,23.2c-0.8,9.4-5.7,16-13.8,20.5c-5.9-1.2-9.9-5.5-14.2-9.2C339.1,367.8,332.2,364.6,323.7,365.2z"/>
<path class="st8" d="M228.1,393c-4.5,0.2-8-2.3-11.6-4.5c-20.6-12.5-38.2-28.7-54.4-46.4c-9.7-10.6-17.9-22.4-24.3-35.4
	c-1.3-2.7-2.1-5.3-1.6-8.3c1.7-0.2,2.6-1.3,3.5-2.7c1.4-2.3,3.3-4.2,5.6-5.6c0.1,5.3-0.8,10.7,0.5,16c2.2,9.1,6.5,17.2,12.7,24.1
	c11.6,12.9,25.2,23.4,40.6,31.5c1,0.5,1.8,1.4,2.6,2.1c0.3,0.5,0.5,1.1,0.9,1.4c9.9,5.8,20.3,10.5,31.9,11.2
	c5.2,0.3,8.9,2.9,12.5,5.9c2.7,2.2,2.4,3.5-0.6,5.2C240.7,390.8,234.7,393.1,228.1,393z"/>
<path class="st3" d="M343.4,284.3c0.2,0,0.4,0,0.6,0.1c8.5,4.3,12.3,18.2,7,25.7c-3.8,5.4-8,10.3-12.6,14.9c-4,4-8.5,7.2-13.7,9.4
	c-1.6,0.7-3.2,1.3-5,1.4c-4.8,0.3-6.1-0.9-6.8-6.1c0.5-1.4,1.1-2.8,1.5-4.3c2-7.2,4.8-13.9,9-20.2
	C328.8,296.9,335.6,290.1,343.4,284.3z"/>
<path class="st4" d="M253.7,48c-11.3-1.5-22.6-1.2-33.8,1c-10.1,2-19,6-25,16c-7-7.7-14.8-13.8-23.2-19.1c-0.1-2.3,1.6-3.4,3.2-4.3
	c5.9-3.4,12.3-5.3,19-5.8c19.3-1.4,37.9,2.1,55.9,9.2C251.4,45.6,253.1,46.1,253.7,48z"/>
<path class="st9" d="M290.9,298.9c2.9-1,4.9-3.5,7.5-5.1c4.4-2.7,8.7-2.3,13,0.1c1.2,0.7,2.2,1.6,2.8,2.8c0.5,0.9,0.2,1.9-0.3,2.7
	c-0.7,1-1.5,0.8-2.4,0.3c-1.2-0.7-2.6-1.3-2.7,1c0.4,3.6-0.7,6.9-2.7,9.8c-2.6,3.9-4.4,8-5.5,12.5c-1.2,4.6-5.4,7-10.1,6
	c-4.3-0.9-8.5-2-12.8-3c-4.1-4.5-4.7-10.2-5.6-15.8c-0.2-1.5,0.7-3.3,1.4-4.8c1.2-2.9,2.7-5.8,4-8.7c3-0.4,6,0.8,7.7,2.6
	C287.9,301.8,289.1,300.1,290.9,298.9z"/>
<path class="st9" d="M215.5,267.2c0.8-6.2,3.6-9.8,10.3-11.5c11.3-2.9,21.9-8,31.8-14.5c7.5-5,15.1-9.8,23.3-13.6
	c3.6-1.6,7.2-3.4,11.5-3.1c-0.4,2.7-1.8,4.5-3.1,6.4c-7.4,11.3-16.8,20.3-29.6,25.4c-13,5.2-26.2,9.7-40.3,10.9
	C218.1,267.4,216.8,267.2,215.5,267.2L215.5,267.2z"/>
<path class="st3" d="M364.6,386.6c1.2-2.9,3.9-4.5,5.7-6.9c2.8-3.8,4.8-8.1,7-12.2c2.1,0.8,2.9,2.9,4,4.6
	c6.6,10.2,12.5,20.7,15.1,32.7c-2.2,5.7-5.8,10-11.6,12.3c-0.2-0.5-0.2-1.3-0.5-1.6c-6.1-4.5-9.9-10.9-14-17.1
	C368,394.6,367.5,390,364.6,386.6z"/>
<path class="st6" d="M289.1,373.1c0.5,7.7,2.5,15,7.6,21.5c-1.9,0.9-3.6,0.7-5.1,0.3c-9.7-2.4-19.2-5.2-27.1-11.6
	c-5.9-4.8-12.3-8.9-18.6-13.3c-3.3-2.3-3.3-2.7,0.1-4.5c3.7-2,7.6-3.6,11-6c0.1,1,0.4,1.8,1.4,2.3
	C267.9,367.6,277.9,372,289.1,373.1z"/>
<path class="st3" d="M253.7,48c-0.6-1.9-2.3-2.4-3.9-3c-18-7.1-36.5-10.7-55.9-9.2c-6.7,0.5-13.1,2.4-19,5.8c-1.7,1-3.3,2-3.2,4.3
	c-4.2-2.6-8.8-4.4-12.9-7.6c1.1-2.3,3.2-2.9,5-3.8c12.3-6.4,25.6-7.7,39.2-6.6c16,1.3,31.4,5,46.1,11.5c5.6,2.5,11,5.2,16.8,10
	C260.8,49.7,257.3,48.3,253.7,48z"/>
<path class="st10" d="M218.2,294.8c0.6,0,0.8,0.4,0.8,0.9c-0.3,2,1,3.3,2.4,4.3c6.9,5.4,13.5,11.3,21.6,15c1.8,0.8,4.2,1.2,4.9,3.6
	c-9.7,4.2-19.2,4.7-28.3-1.8c-1.1-0.8-2.2-1.5-3.4-2.2c-3.6-2.1-6.3-4.4-7.4-9.2c-1.5-6.7-6.3-12.1-10.9-17.3
	c-1.4-1.6-3.5-2.9-4.3-5.7c5.7-0.6,10.9-0.2,16.2-0.1c-0.1,4.7,3.2,7.8,5.4,11.4C215.8,294.7,217,295,218.2,294.8z"/>
<path class="st7" d="M232.8,337.5c1.9,8.1,6.4,14.7,11.8,20.8c-9,1.6-18,2.3-26.9-1c-3.8-1.4-6.6-4.4-10.3-5.9
	c-0.8-8.1,1.1-15.2,7.4-20.8c1.4,0.2,2.3,1.3,3.5,1.9C222.9,334.9,227.3,337.6,232.8,337.5z"/>
<path class="st11" d="M318.2,366.4c0.5,9.5,3.4,18,10,24.8c-0.2,2-1.7,2.3-2.9,2.5c-5.1,0.9-10.2,1.7-15.3,2.5
	c-4.1,0.7-7-1.4-9.4-4.3c-4.3-5.4-6.6-11.6-6.9-18.5c7.3-1.5,14.5-3.2,21.3-6.2C316,366.8,317,366.3,318.2,366.4z"/>
<path class="st9" d="M96,139c3.2,2,6.4,4,10,6.2c-12.2,17.6-8.6,36.4-4.4,55.3c-4.6-2.1-9.3-8-13-16.1c0.6-4.9-1.1-9.4-1.7-14.2
	c-1-8.5-0.7-16.8,1.9-25C89.9,141.8,91.8,139.2,96,139z"/>
<path class="st3" d="M259.6,323.6c1.9,6.3,5.1,11.9,9.7,16.6c2.1,2.1,1.9,3.8-0.3,5.7c-4.7,4-9.9,7.2-15.1,10.4
	c-1.5,0.9-2.9,1-4.2-0.1c-6.7-5.5-12.2-11.6-12.4-20.9c5.3,0,9.4-2.7,13.3-5.8C253.4,327.2,256.3,325,259.6,323.6z"/>
<path class="st3" d="M318.2,366.4c-1.2-0.1-2.2,0.3-3.3,0.8c-6.8,3.1-14,4.7-21.3,6.2c-2.4-6.3-0.1-12.3,1.8-18.2
	c1.2-3.7,3.3-7.2,6.4-9.8c1.7,2.1,3.7,1.2,5.7,0.7c3.7-1,7.3-2.1,11.2-1.8c2.1-0.5,4,0.1,6.5,0.4c-2.2,4.4-4.6,8.3-5.5,12.8
	C319,360.5,319.6,363.6,318.2,366.4z"/>
<path class="st10" d="M268.4,63.3c-6.1-1.4-12.3-3-18.6-2.9c-10.8,0.1-21.8,0.2-32,4.7c-3.3,1.4-6.4,3.5-7.1,7.6
	c-2.1-2.4-4.3-4.8-6.4-7.3c-2.1-2.5-2-3.7,0.7-5.7c2.6-1.9,5.6-3.3,8.7-4.4c12.6-4.4,25.7-4.1,38.7-2.8
	C259.5,53.2,264.3,57.8,268.4,63.3z"/>
<path class="st3" d="M295,71.3c12,9.5,19.4,22.2,25.5,36.2c-5-1.1-9.8-2.5-14.7-0.8c-1.7,0.6-2.2-0.9-2.8-2.2
	c-1.8-3.6-3.2-7.3-5.3-10.8c-5-8.4-11.2-16-17.3-23.5c-0.6-0.7-1.1-1.6-1.6-2.3c3.1-0.4,5.9,0.6,8.7,1.5
	C290,70.1,292.2,71.6,295,71.3z"/>
<path class="st6" d="M228.1,393c6.7,0.1,12.7-2.2,18.4-5.3c3-1.6,3.3-2.9,0.6-5.2c-3.6-3-7.3-5.6-12.5-5.9
	c-11.6-0.7-22-5.3-31.9-11.2c-0.4-0.3-0.6-0.9-0.9-1.4c2.6-0.3,4.9,0.7,7.1,1.8c4.8,2.5,10,3.7,15.2,4.9c1.8,0.4,4,0.7,5.7,0.1
	c6.1-2.4,10.6,0.6,15.1,3.9c2.2,1.6,4.3,3.2,6.4,4.8c4,3,4.2,3.9,2.3,8.6c-0.4,1.1-1.2,2-1.1,3.2c0,0.2,0.2,0.3,0.4,0.7
	c1.8-0.4,2.6-1.9,3.2-3.4c1.2-2.9,3-3.1,5.4-1.6c1,0.6,2.1,1,3,1.7c2,1.5,2.1,3.3-0.3,4.4c-5.5,2.6-11.2,4.9-16.8,7.3
	c-0.7,0.3-1.5,0.4-2.2,0.2c-5.1-1.4-10.4-2.5-15.2-5.1C229,395,228.2,394.3,228.1,393z"/>
<path class="st3" d="M96,139c-4.1,0.1-6.1,2.8-7.2,6.3c-2.6,8.2-2.9,16.5-1.9,25c0.5,4.7,2.3,9.3,1.7,14.2
	c-14.1-17-16.9-42.4-6.2-59.2C86.6,130.3,90.9,135.1,96,139z"/>
<path class="st6" d="M323.7,365.2c8.5-0.6,15.4,2.6,21.7,8.2c4.2,3.7,8.2,8,14.2,9.2c-2.5,4.4-7.3,5-11.3,6.7
	c-5.3,2.3-9.5-0.1-13.4-3.4c-1.4-1.2-2.6-3.1-4.7-0.8c-0.6,0.7-1.4,0.2-2-0.3C324.9,382,322.1,369.8,323.7,365.2z M331.3,371.9
	c4,6.2,7.1,7.9,13.5,7.3C339.1,377.5,335.9,373.5,331.3,371.9z"/>
<path class="st8" d="M289.1,373.1c-11.2-1.2-21.2-5.5-30.7-11.3c-0.9-0.6-1.3-1.3-1.4-2.3c5.4-2.3,9.7-6.4,14.7-9.3
	c2.9,1.4,5.9,2.1,9.1,2.6c3.6,0.6,7-0.8,10.5-0.6C289.8,359.1,288.7,366,289.1,373.1z"/>
<path class="st3" d="M395.9,426.1c4.7,2.4,8,5.9,10.7,10.7c4.6,8.2,12.3,13.4,21,17c4.9,2,10.1,3.5,13.8,7.6
	c-3.9,1.8-7.9,0.9-11.7-0.1c-10.7-2.8-20.4-7.4-28.2-15.6c-4.2-4.4-8.6-8.7-12.9-13c-0.7-0.7-1.3-1.4-1.2-2.8
	C390,428.8,393,427.4,395.9,426.1z"/>
<path class="st3" d="M210.9,327.3c-3.8,6-7.4,12.1-8.2,19.4c-3.9,0.4-5.9-2.8-8.7-4.6c-3.6-2.2-5.8-6.6-10.6-7
	c1.3-7.9,4.4-14.7,11.1-19.6C200.1,319.2,206.2,322.3,210.9,327.3z"/>
<path class="st2" d="M290.9,298.9c-1.8,1.2-3.1,2.9-5.6,0.3c-1.7-1.8-4.7-3-7.7-2.6c-1.9-2.2-4.8-2.4-7.2-3.8
	c-3.9-0.8-7.5-2.7-11.2-4.1c-7.2-2.8-14.1-6.4-21.9-7.7c0-1-0.2-1.9-1.2-2.3c0.3-1.2,0.4-2.2-1-2.7c0-1-0.1-2.1-0.1-3.1
	c2-1.1,4-2.2,6-3.3c1.5,0.4,2.9,0.7,4.4,1.1c2.5,2.9,5.9,2.6,9.2,2.3c0.6,1.5,1.6,2.4,3.3,2.3c4.3,3.8,9.7,4.8,15.1,5.8L273,281
	c-0.1,1,0.6,1.1,1.2,1.3c2.9,1.4,5.9,2.3,9.1,2.2c0.4,0.1,0.7,0.2,1.1,0.3c0.4,2.3,2.2,2,3.8,2c1.3,3,4.8,2.4,6.7,4.4
	c0,1.6-0.9,2.4-2.5,2.5c-13.4-5.3-26.7-10.6-40.1-15.8c-0.7-0.3-1.5-0.2-2.3-0.2c-2.1-1.9-4.8-2.8-7.5-3.7c-1.1-0.4-2.4-0.4-2.9,0.8
	c-0.5,1.2,0.3,2.2,1.3,2.8c2.6,1.6,5.5,2.3,8.5,2.8c1.8,1.5,4,2,6.1,2.9c11.1,4.4,22.2,8.7,33.3,13
	C289.8,297.2,290.3,298,290.9,298.9z"/>
<path class="st11" d="M364.6,386.6c2.9,3.5,3.3,8.1,5.8,11.8c4.1,6.2,7.9,12.6,14,17.1c0.4,0.3,0.4,1,0.5,1.6
	c-5.1,3.4-7,3.7-11.2,0.3c-8.9-7.2-18.1-14-26.9-22.6C353.5,392.7,359,389.5,364.6,386.6z"/>
<path class="st8" d="M343.4,284.3c-7.8,5.8-14.6,12.6-20,20.8c-4.1,6.3-7,13-9,20.2c-0.4,1.5-1,2.9-1.5,4.3c-1-0.3-1.8-0.9-1.8-1.9
	c-0.2-6.1-0.7-12.2,2.2-17.9c4.7-9.4,9.8-18.5,15.3-27.4c1.9-3,3.9-6.2,7.9-5.5C340.4,277.4,342.8,280.3,343.4,284.3z"/>
<path class="st12" d="M170.6,325.4c-4.7,2.7-8.2,2.8-11.1-0.9c-6.6-8.2-11.1-17.4-9.5-28.4c0.7-4.9,3.3-8.5,8.2-9.9
	c2.4-0.7,4.9-1,6.6,1.6c-0.1,0.4,0,0.8-0.2,1.1c-6.5,8.8-4.9,17.7-0.8,26.8C165.5,319.4,168.8,321.9,170.6,325.4z"/>
<path class="st13" d="M170.6,325.4c-1.8-3.5-5.2-6-6.8-9.7c-4.1-9.1-5.6-18.1,0.8-26.8c0.2-0.3,0.1-0.7,0.2-1.1
	c0.4,0.1,0.8,0.1,1.1,0.3c8.7,5.7,13.8,22.3,9.8,31.6C174.7,322.2,173.5,324.6,170.6,325.4z"/>
<path class="st14" d="M237.4,281c7.7,1.3,14.6,4.9,21.9,7.7c3.7,1.4,7.2,3.3,11.2,4.1c-3.6,4.4-8.8,6.3-13.8,8.6
	c-1.4,0.6-2.6,0.1-3.7-0.7c-7.4-5.3-15-10.3-23.2-14.7C231.6,282.9,235.3,283.1,237.4,281z"/>
<path class="st7" d="M175.2,329.5c-0.1-1.5,0.8-2.5,1.5-3.6c5.2-7.2,6.1-15,3.4-23.4c-1.8-5.8-5.2-10.7-8.4-15.7
	c2.8,0,5.6,0.4,8.4,0.9c5.4,0.9,9.7,4,14.6,6c1.2,2.5,4.4,3.5,4.9,6.6c-1.6,0.4-2.9-0.7-4.4-0.8c-3.3-0.3-6,0.9-7.8,3.6
	c-1.7,2.6,0.4,4.6,1.6,6.7c0.6,1,1.3,1.8,2.4,2.4c-5.1,5.1-9.1,10.8-11.3,17.7c-0.2,0.7-0.9,1.2-1.4,1.7
	C177.9,330.2,176.8,329.5,175.2,329.5z"/>
<path class="st10" d="M284.5,284.8c-0.4-0.1-0.7-0.2-1.1-0.3c-3.4-4.5-8.6-6.7-12.7-10.4c-5.2-4.6-10.5-4.3-16.1-1.2
	c-3.3,0.3-6.7,0.6-9.2-2.3c2.8-2.3,5.7-4.5,8.5-6.8c2.7-2.2,5.3-2.9,8.9-1.5c9,3.6,16.7,9,23.8,15.5c1.4,1.2,3,2.4,3.5,4.7
	C288.3,283.4,286.4,284.1,284.5,284.8z"/>
<path class="st10" d="M379.8,279.8c1.6-0.6,2.5,0.6,3.3,1.6c6.2,7.4,8.2,15.8,6.3,25.2c-0.6,2.9-2.4,4.6-5.4,5.4
	c-1.9-11.2-7.1-20.9-12.3-30.6C374.4,280.6,377,279.6,379.8,279.8z"/>
<path class="st6" d="M194.7,293.8c-4.8-2-9.2-5.1-14.6-6c-2.8-0.5-5.6-0.9-8.4-0.9c-2.3-1.3-4-3.5-6.6-4.4c-2.8-0.9-5.4-1.5-8.3-0.3
	c-0.6,0.3-1.6,0-1.8-0.9c-0.1-0.5,0.1-1.2,0.4-1.5c2-2.5,4.4-4.1,7.7-4.4c7.2-0.8,13.6,1.5,19.5,5.1c3.7,2.3,7.1,5.1,10.1,8.4
	C194,290.2,195,291.7,194.7,293.8z"/>
<path class="st10" d="M372,338.7c-3-2.5-6.1-5.1-9.5-7.9c3.9-2.9,7.2-5.6,11.9-6c2.6-0.2,4.7-1.4,6.4-3.4c3.9-4.8,3.9-4.8,9.7-2.9
	c0.5,0.2,1,0.6,1.5,0.9c0,1.2,0,2.4-0.9,3.2C385.3,328.6,379.8,335,372,338.7z"/>
<path class="st9" d="M396.5,404.7c-2.5-12.1-8.5-22.5-15.1-32.7c-1.1-1.7-1.9-3.8-4-4.6c0.7-3.1,1.4-6.2,2.1-9.4
	c2.1,0.4,2.3,2.2,3.1,3.4c5.4,8.6,9.7,17.9,14.7,26.7C400.6,394,400,399.3,396.5,404.7z"/>
<path class="st6" d="M207.4,351.3c3.7,1.5,6.5,4.5,10.3,5.9c8.9,3.3,17.8,2.6,26.9,1c1.4,0.3,2.4,1.2,0.8,2.1
	c-10.2,6.3-20.9,8.1-32,2.5C208.9,360.6,207.4,356.3,207.4,351.3z"/>
<path class="st10" d="M277.8,326c4.3,1,8.5,2,12.8,3c4.7,1,9-1.4,10.1-6c1.1-4.5,2.9-8.7,5.5-12.5c2-2.9,3.1-6.1,2.7-9.8
	c2.6,1.6,2.9,3.7,1.5,6.3c-2.7,5.2-3.9,10.8-3.8,16.6c0,2.4-1.1,3.9-2.9,5.2c-4,2.8-8.3,4.6-13,5.9c-4.4,1.2-7.9,0.5-10.2-3.8
	C279.6,329.2,277.7,328.1,277.8,326z"/>
<path class="st11" d="M183.4,335.1c4.8,0.4,7,4.8,10.6,7c2.8,1.7,4.8,4.9,8.7,4.6c0.2,3.7,0,7.5,1.2,10.8c-1.4,1.1-2.3,0.7-3.1,0.3
	c-3.9-2.3-7.8-4.8-11.8-6.9c-4.7-2.4-6.4-6.2-6-11.2C183.1,338.2,183.2,336.7,183.4,335.1z"/>
<path class="st10" d="M373.4,362.1c-3.8-10.1-9.6-18.6-19.9-23.2c-1.8-0.8-3.5-1.7-5.5-1.4c7.5-6,10.6-3.8,15.8-0.3
	c4.8,3.3,8.4,7.8,11.2,12.7C377.3,353.9,376.3,358.4,373.4,362.1z"/>
<path class="st8" d="M392.9,309.9c2.4-9.7,1.8-19-3.9-27.6c-0.7-1-0.8-2.1-0.8-3.2c5,1.1,8.3,4.2,10.6,8.7c1,2,2.2,4,3.3,6
	c2.1,1.9,1.4,4.3,0.7,6.4c-0.6,2.1-0.6,4.1-0.8,6.2C398.7,306.8,396.3,309.6,392.9,309.9z"/>
<path class="st9" d="M367.4,283.4c0.5,0.5,1.1,1,1.6,1.6c7.3,8.5,7.4,15.5,0.2,24c-2.2,2.6-4.2,5.6-8.9,7.6c3-5.4,5.5-9.5,6.5-14.4
	c1.2-6.3-0.1-11.8-3.6-16.8c-1-1.4-1.8-2.9-2.6-4.4C363.4,280.4,365,283.2,367.4,283.4z"/>
<path class="st10" d="M291.3,352.2c-3.5-0.3-6.9,1.1-10.5,0.6c-3.2-0.5-6.2-1.2-9.1-2.6c1.6-2.4,3.5-4.4,6.6-4.8
	c1.9-0.3,3.5-1.5,4.7-2.9c1.4-1.7,3.2-1.7,5.1-1.7c1.8,2.1,4.6,1.6,6.9,2.6c0.3,1.1,2.9,1.6,0.8,3.5
	C294,348.3,293.4,350.9,291.3,352.2z"/>
<path class="st6" d="M145.2,290.3c-2.4,1.3-4.2,3.3-5.6,5.6c-0.9,1.4-1.8,2.4-3.5,2.7c2.9-13.2,11.8-28.4,19.9-33.3
	c1.1,3.5,1.3,6.1-1.9,9C149.4,278.4,146.5,284,145.2,290.3z"/>
<path class="st7" d="M252.9,310.6c-2.1,0.2-3.6-1.2-5.1-2.2c-7.2-4.7-14.2-9.6-21.9-13.5c-0.2-0.1-0.4-0.2-0.5-0.3
	c-1.2-1-3.5-1.7-2.3-3.9c1.1-2.1,3.1-2,5-0.9c5.3,3.1,10.6,6,15.6,9.6c2.5,1.8,5,3.5,7.5,5.3C253,306.2,254.4,307.9,252.9,310.6z"/>
<path class="st9" d="M210.9,327.3c-4.7-5-10.8-8-16.5-11.7c1.1-2.2,3.3-3.1,5.3-4c2-1,3.9-0.8,5.8,0.7c4,2.9,8.1,5.7,12.4,8.6
	C216,323.5,213.4,325.4,210.9,327.3z"/>
<path class="st10" d="M358.5,303c-1.3-10.3-7.4-18.1-13.8-25.9c3.9-0.8,7.2,0.3,10.8,4.3c5.2,5.7,9.7,11.9,7,20.4
	C361.2,302.2,359.8,302.6,358.5,303z"/>
<path class="st9" d="M259.6,323.6c-3.4,1.4-6.2,3.6-9.1,5.9c-3.9,3.1-8,5.8-13.3,5.8c0-1.3-0.1-2.7,0-4c0.5-5.7,0.5-5.7,5.9-7
	c5.2-1.3,10.2-2.9,15.1-4.8C259.9,320.6,259.4,322.2,259.6,323.6z"/>
<path class="st14" d="M358.5,303c1.3-0.4,2.7-0.8,4-1.2c-0.4,3.7-1.9,7.1-3.9,10.1c-7.1,10.9-16.1,19.9-27.6,26.3
	c-2.5,1.4-5.1,2.4-8.1,1.5c3.2-1.6,6.4-3,9.3-4.9c9.9-6.7,17.2-15.7,23.8-25.4C357.4,307.5,358.1,305.3,358.5,303z"/>
<path class="st11" d="M215.6,277.4c-13.4,1.8-26.4,0.7-38.5-6.2c11.9,0.4,23.8,2.3,35.7,1.5C214,274.1,215.9,275.1,215.6,277.4z"/>
<path class="st14" d="M289.2,296.3c-11.1-4.3-22.2-8.6-33.3-13c-2.1-0.8-4.4-1.3-6.1-2.9c0.2-0.9,0.4-1.8,0.6-2.7
	c0.8,0.1,1.6,0,2.3,0.2c13.4,5.2,26.7,10.5,40.1,15.8C292.3,295.7,290.9,296.2,289.2,296.3z"/>
<path class="st14" d="M347.9,330.5c2.1-2.2,4.2-4.5,6.3-6.7c1.4-1.5,3.4-2.8,4.2-4.7c1.3-3.3,2.8,0.6,4.2-0.5c2.9-2.2,6-4.1,9-6.1
	c1.1,5.1,0.3,7.4-3.7,9.9c-6.3,4-13.1,7.1-19.9,10.2C347.9,331.9,347.9,331.2,347.9,330.5z"/>
<path class="st9" d="M247.8,318.6c-0.7-2.4-3.1-2.8-4.9-3.6c-8.1-3.7-14.6-9.6-21.6-15c-1.3-1-2.7-2.3-2.4-4.3
	c5.2,2.1,9.8,5,14.4,8.1c5.7,3.8,11.3,7.8,17.4,11.1c0.9,0.5,2.3,0.6,2.3,2.6C251.4,317.9,249.6,318.2,247.8,318.6z"/>
<path class="st3" d="M232.8,337.5c-5.4,0.1-9.9-2.6-14.4-5c-1.2-0.6-2.1-1.7-3.5-1.9c0.5-2.5,2.5-3.8,4.3-5.2c1.6-1.3,3-2.5,4.5,0.5
	c0.6,1.1,3.1,1.2,4.8,1.2c1.7,0,3.5-0.4,5,0.7C233.2,331,233,334.3,232.8,337.5z"/>
<path class="st10" d="M461,453.4c1.3,1.1,0.2,2.1-0.4,2.9c-1.9,2.6-3.9,5.1-6,7.6c-3.8,4.5-4.1,4.5-9.3,1c0.4-1.6,1.8-2.4,2.8-3.5
	c4.8-4.7,9-9.8,11.9-16c0.6-1.3,1-2.9,2.6-3.6C463.2,445.9,461.2,449.5,461,453.4z"/>
<path class="st9" d="M461,453.4c0.2-3.9,2.2-7.5,1.6-11.5c0.7-5.1,3.3-9.7,3.5-15c4.5,1.9,6.2,4.1,5.3,7.9
	c-1.5,6.8-4.6,12.8-8.8,18.4C462.1,453.6,461.5,453.6,461,453.4z"/>
<path class="st9" d="M218.2,294.8c-1.2,0.1-2.4-0.1-3-1.1c-2.2-3.6-5.5-6.7-5.4-11.4c6.6-0.6,13.1-1.7,19.5-3.4c0,0.7,0,1.4,0,2.1
	c-5.1,1.7-8,6.2-11.8,9.4C215.3,292.1,218.6,293.2,218.2,294.8z"/>
<path class="st10" d="M191.3,312.2c-1-0.6-1.8-1.4-2.4-2.4c-1.2-2.1-3.3-4-1.6-6.7c1.8-2.7,4.5-3.9,7.8-3.6c1.5,0.1,2.8,1.2,4.4,0.8
	c1.5,1.2,3.3,2.1,3.9,4.2c-0.3,0.3-0.6,0.6-0.9,0.9c-2.1-0.3-3.3-2.5-5.5-2.6c-0.1-0.1-0.1-0.3-0.2-0.4c-0.1-0.1-0.3,0-0.3,0
	c0,0.4,0.2,0.5,0.6,0.4c-0.2,0.8-0.1,1.5,0.4,2.1c1.5,1.7,1.2,2.9-0.8,3.9C194.8,309.9,193.1,311.1,191.3,312.2z"/>
<path class="st10" d="M302,285.6c-2.3-1.5-5.5-1.9-7.5-4.5c-2.5-3.4-5.2-6.6-8.7-9c-0.9-0.6-1.9-1.5-1.1-2.8c0.7-1,2-1.2,3.1-0.9
	c0.9,0.3,1.7,0.9,2.4,1.5c4.5,4,9.1,8.1,13.6,12.2c0.7,0.6,1.7,1.1,0.9,2.2C304.2,285.2,303.3,285.5,302,285.6z"/>
<path class="st7" d="M273.1,337.6c-5.6-3.9-8.3-9.5-9.4-16c2-0.3,3.6-1.8,5.7-1.3c2.4,4,4.9,8,6.3,12.6
	C275.4,334.7,273.8,335.9,273.1,337.6z"/>
<path class="st7" d="M295,71.3c-2.7,0.3-5-1.2-7.5-2c-2.8-0.9-5.7-1.9-8.7-1.5c-1.2-0.7-2.3-1.6-2.1-3.1c0.3-1.8,0.8-3.7,1.6-5.4
	c0.6-1.3,2-0.8,3-0.2c3.3,1.9,6.5,4,9.1,6.8C291.9,67.7,295,68.2,295,71.3z"/>
<path class="st10" d="M215.6,277.4c0.3-2.3-1.6-3.2-2.8-4.6c8.5-1.2,17-2,25.4-4.3c1.1-0.3,2.3-0.2,2.9,1.1c-2,1.1-4,2.2-6,3.3
	C228.6,274.7,222.3,277.1,215.6,277.4z"/>
<path class="st9" d="M372,338.7c7.7-3.7,13.3-10.1,19-16.2c0.8-0.9,0.9-2.1,0.9-3.2c2.1-0.2,4.7-0.1,2.8,2.7
	c-4.8,6.9-10.3,13.2-17.3,18.1C375.1,341.7,373.2,341.6,372,338.7z"/>
<path class="st10" d="M291.5,235c1.9-3.5,3.8-7,5.7-10.5c0.6-1.1,1.5-1.7,2.7-1.9c2.4-0.3,4.8-0.6,7.9-1c-3.9,5.9-8.8,9.9-13.9,13.6
	C293.1,235.1,292.3,235,291.5,235z"/>
<path class="st8" d="M388.2,421.6c4.2-4.6,8.4-9.2,12.6-13.8c1.1,0.2,1.9,0.8,2.6,1.7c-1.6,6.7-7.2,12.1-13.8,13.3
	C389.1,422.5,388.7,422,388.2,421.6z"/>
<path class="st7" d="M99.2,205.9c-1.6,1.1-0.7,2.2-0.2,3.5c1.2,3.5,3.5,6.7,3.6,10.6c-3.3-1.5-4.2-4.9-5.8-7.7
	c-3.2-5.6-6.9-11-8.2-17.6l0.2-0.2C92.3,198.3,95.8,202.1,99.2,205.9z"/>
<path class="st6" d="M175.2,329.5c1.6,0,2.8,0.8,3.4,2.2c0,3.2,0,6.3,0,10c-5-1.6-7.3-5.1-9.9-8.2c-0.8-1-0.4-2.2,1-2.7
	C171.5,330.2,173.2,329.2,175.2,329.5z"/>
<path class="st10" d="M402.1,293.7c-1.1-2-2.3-3.9-3.3-6c-2.2-4.5-5.6-7.6-10.6-8.7c-2.4-0.8-4.4-2-6.2-4
	C391.9,273,400.9,281.6,402.1,293.7z"/>
<path class="st10" d="M403.4,409.6c-0.6-0.9-1.4-1.6-2.6-1.7c-0.3-2.2,1-4,1.4-6c0.4-2,1-4,1.5-6.2c2.4,0.3,4.2,1.6,4,3.8
	C407.4,403.1,408,407.6,403.4,409.6z"/>
<path class="st10" d="M367.4,283.4c-2.5-0.2-4-3.1-6.9-2.4c-2.7-2.9-5.4-5.9-7.9-8.6C358.8,272.1,364.1,275.9,367.4,283.4z"/>
<path class="st6" d="M392.9,309.9c3.4-0.3,5.8-3.1,9.1-3.6c-0.1,0.7-0.1,1.5-0.4,2.2c-3.1,7.6-3.1,7.6-11.3,5.5
	C390.7,312.3,391.7,311,392.9,309.9z"/>
<path class="st6" d="M269.6,260.3c-1.3,0-2.7,0.2-3.6-1.1c4-3.8,4.3-4,8.4-1.7c2.6,1.6,6.2,2.3,6.9,6.1c-3.5-0.6-6.6-3-10.5-2.2
	c0,0,0.1,0.1,0.1,0.1C270.4,261.1,270,260.7,269.6,260.3z"/>
<path class="st6" d="M297.3,337.5c2-2.2,5-2.6,7.2-4.3c1.4-1.1,2.6-1.6,3.5,0.5c0.8,1.7,1.8,3.6-0.6,4.8c-1.7,0.8-3.4,1.6-5.4,1.4
	C301,338,298.3,339.4,297.3,337.5z"/>
<path class="st8" d="M297.3,337.5c1,1.9,3.7,0.5,4.7,2.3c-2.2,1.4-5,1.5-6.9,3.4c-2.3-0.9-5.1-0.4-6.9-2.6
	C290.5,337.7,294.2,338.3,297.3,337.5z"/>
<path class="st14" d="M318.7,344.4c-3.9-0.3-7.5,0.8-11.2,1.8c-2,0.5-4,1.4-5.7-0.7C307.1,341.2,314.1,340.8,318.7,344.4z"/>
<path class="st6" d="M378,304.8c1.3,5.1,1.9,10-1.7,14.4C375.9,314.3,374.5,309.3,378,304.8z"/>
<path class="st6" d="M270.9,300c-3.2,3.8-8.4,7.6-12.2,9C258.5,304.6,261.7,302.2,270.9,300z"/>
<path class="st6" d="M388.2,421.6c0.4,0.4,0.9,0.9,1.3,1.3c-3.3,3.8-7.5,4.5-13.5,1.7C380.4,423.5,384.3,422.6,388.2,421.6z"/>
<path class="st14" d="M379.8,279.8c-2.8-0.3-5.4,0.7-8,1.5c-1.4-1.3-2.8-2.6-3.2-4.6C373,274.9,376.2,275.8,379.8,279.8z"/>
<path class="st6" d="M273.1,337.6c0.7-1.7,2.3-2.9,2.6-4.8c2,0.3,2.4,2.2,3.5,3.4c1.1,1.3,1,2.8-0.4,4c-1.1,1-2.5,0.9-3.6-0.1
	C274.5,339.4,273.8,338.4,273.1,337.6z"/>
<path class="st10" d="M269.5,320.2c-2.1-0.5-3.8,1-5.7,1.3c-0.3-2.5-0.6-5,1.7-6.9c1.8-1.5,3.3-1.2,3.8,1
	C269.6,317.1,269.4,318.7,269.5,320.2z"/>
<path class="st10" d="M295.1,291.3c-1.9-2-5.5-1.4-6.7-4.4c3.6,0.2,7.5-1.1,11,1.8C298.7,290.7,297,291.2,295.1,291.3z"/>
<path class="st7" d="M270.7,261.5c3.8-0.8,6.9,1.6,10.5,2.2c0.9,0.3,2.2,0.6,1.4,1.7c-0.8,1.2-2.3,2.2-3.9,1
	C276.3,264.5,273,263.7,270.7,261.5z"/>
<path class="st8" d="M267.1,54.9c3.3,1.2,5.5,1.7,5.9,4.5c0.1,0.6-0.3,1.3-0.9,1.1C269.8,59.9,268.5,58.2,267.1,54.9z"/>
<path class="st3" d="M229.3,281c0-0.7,0-1.4,0-2.1c2-0.9,3.9-1.9,5.9-2.8c1.4,0.5,1.3,1.6,1,2.7C233.6,278.7,231.8,280.8,229.3,281z
	"/>
<path class="st6" d="M164,270.5c-1.1-0.2-2-0.7-2.2-1.9c-0.1-0.6,0.3-1.1,1-0.9c1.1,0.2,2,0.9,2.3,2.1
	C165.2,270.4,164.6,270.6,164,270.5z"/>
<path class="st8" d="M291.5,235c0.8,0.1,1.6,0.1,2.4,0.2c-0.7,1.3-1.8,2.2-3.4,2.3c0,0-0.3-0.3-0.3-0.3
	C290.3,236.2,290.6,235.4,291.5,235z"/>
<path class="st11" d="M347.9,330.5c0,0.7,0,1.4,0,2.1c-0.6,0.2-1.2,0.4-1.9,0.6c-0.2-0.2-0.4-0.4-0.5-0.5
	C346,331.7,346.8,330.9,347.9,330.5z"/>
<path class="st10" d="M203.5,304.6c0.9,0.4,2,1.2,1.2,2c-0.8,0.8-1.5-0.4-2.1-1.1C202.9,305.2,203.2,304.9,203.5,304.6z"/>
<path class="st7" d="M88.6,194.7c-0.9-0.6-1.1-1.5-1-2.4l-0.1,0.1c0.9,0.4,1.2,1.3,1.3,2.2C88.8,194.5,88.6,194.7,88.6,194.7z"/>
<path class="st6" d="M334.4,389.7c0,0.1,0.2,0.4,0.1,0.4c-0.1,0.1-0.3,0.1-0.5,0.2c0-0.1-0.2-0.4-0.1-0.4
	C334,389.7,334.2,389.7,334.4,389.7z"/>
<path class="st7" d="M87.6,192.3c-0.2-0.2-0.3-0.3-0.5-0.5c0.1,0,0.2,0,0.3,0.1C87.5,192.1,87.5,192.2,87.6,192.3
	C87.6,192.4,87.6,192.3,87.6,192.3z"/>
<path class="st9" d="M102.3,202c-0.1,0.1-0.2,0.2-0.3,0.3c-0.1-0.1-0.3-0.2-0.3-0.4c0-0.1,0.2-0.2,0.3-0.3
	C102.1,201.7,102.2,201.9,102.3,202z"/>
<path class="st8" d="M289.2,238.4c0.4-0.4,0.7-0.8,1.1-1.2c0,0,0.3,0.3,0.3,0.3c-0.4,0.4-0.8,0.7-1.3,1.1
	C289.3,238.5,289.2,238.4,289.2,238.4z"/>
<path class="st8" d="M289.3,238.5c-0.2,0.2-0.4,0.3-0.6,0.5c0.1-0.2,0.3-0.4,0.4-0.6C289.2,238.4,289.3,238.5,289.3,238.5z"/>
<path class="st7" d="M269.6,260.3c0.4,0.4,0.8,0.8,1.3,1.2C270.4,261.1,270,260.7,269.6,260.3z"/>
<path class="st9" d="M215.4,267.2c0,0.2-0.1,0.4-0.1,0.4C215,267.6,215,267.4,215.4,267.2C215.5,267.2,215.4,267.2,215.4,267.2z"/>
<path class="st11" d="M346,333.2c-0.3,0.3-0.7,0.8-1.1,0.1c0-0.1,0.4-0.4,0.6-0.7C345.7,332.9,345.8,333,346,333.2z"/>
<path class="st6" d="M441.1,430.8c-1.8,4.5-3.6,9-5.5,13.5c-1.3,3-3.1,5.6-6.4,6.6c-0.2-0.2-0.4-0.3-0.5-0.5
	c3.8-6.8,7.5-13.6,11.3-20.5C440.3,430.2,440.7,430.5,441.1,430.8z"/>
<path class="st11" d="M439.9,429.9c0.1-1.7,0.5-3.2,2.1-4.3c1,2-0.5,3.5-0.9,5.2C440.7,430.5,440.3,430.2,439.9,429.9z"/>
<path class="st6" d="M429.2,450.9c-0.3,0.5-0.7,0.6-1.2,0.2c0.2-0.2,0.4-0.4,0.7-0.6C428.8,450.6,429,450.7,429.2,450.9z"/>
<path class="st0" d="M331.3,371.9c4.6,1.6,7.8,5.6,13.5,7.3C338.4,379.8,335.3,378.1,331.3,371.9z"/>
<path class="st0" d="M254.7,273c5.6-3.1,10.9-3.4,16.1,1.2c4.1,3.6,9.3,5.9,12.7,10.4c-3.2,0.1-6.3-0.8-9.1-2.2
	c-0.1-0.7-0.5-1.2-1.2-1.3c0,0,0.1,0.1,0.1,0.1c-4.2-4.2-8.4-8.2-15.1-5.8C256.3,275.4,255.3,274.5,254.7,273z"/>
<path class="st10" d="M258,275.3c6.7-2.3,10.9,1.7,15.1,5.8C267.8,280.1,262.3,279.1,258,275.3z"/>
<path class="st3" d="M250.3,277.7c-0.2,0.9-0.4,1.8-0.6,2.7c-3-0.5-5.9-1.2-8.5-2.8c-1-0.6-1.8-1.6-1.3-2.8c0.6-1.2,1.8-1.2,2.9-0.8
	C245.5,274.9,248.2,275.8,250.3,277.7z"/>
<path class="st10" d="M273,281c0.7,0.2,1.1,0.6,1.2,1.3C273.7,282.1,272.9,282,273,281z"/>
<path class="st0" d="M197.1,302.9c-0.4,0.1-0.6,0-0.6-0.4c0,0,0.3-0.1,0.3,0C196.9,302.6,197,302.8,197.1,302.9
	C197,303,197.1,302.9,197.1,302.9z"/>
</svg>
