<?xml version="1.0" encoding="iso-8859-1"?>
<!-- Generator: Adobe Illustrator 21.1.0, SVG Export Plug-In . SVG Version: 6.00 Build 0)  -->
<svg version="1.1" xmlns="http://www.w3.org/2000/svg" xmlns:xlink="http://www.w3.org/1999/xlink" x="0px" y="0px"
	 viewBox="0 0 512 512" style="enable-background:new 0 0 512 512;" xml:space="preserve">
<g id="Layer_2" style="display:none;">
	<path style="display:inline;fill:#FFE470;" d="M206.048,392.379c-4.5,17.404-13.801,33.906-27.304,47.409
		c-31.206,30.906-146.653,67.741-159.555,71.641c-5.102,1.5-10.802,0-14.702-3.901c-3.901-3.901-5.403-9.602-3.901-15.003
		c3.901-12.601,41.034-127.751,71.938-158.955c13.502-13.502,30.005-22.804,47.409-27.306l42.907,42.909L206.048,392.379z"/>
	<g style="display:inline;">
		<path style="fill:#FFD400;" d="M162.841,349.173l43.207,43.205c-4.5,17.404-13.801,33.906-27.304,47.409
			c-31.206,30.906-146.653,67.741-159.555,71.641c-5.102,1.5-10.802,0-14.702-3.901L162.841,349.173z"/>
		<path style="fill:#FFD400;" d="M167.943,365.375l-42.308,42.606c-3,2.701-6.9,4.201-10.501,4.201c-3.901,0-7.801-1.5-10.803-4.201
			v-0.3c-5.701-6-5.701-15.303,0-21.003l42.608-42.308c5.701-6.001,15.003-6.001,20.704,0h0.3
			C173.942,350.073,173.942,359.674,167.943,365.375z"/>
	</g>
	<path style="display:inline;fill:#FDBF00;" d="M167.943,344.372c6,5.701,6,15.303,0,21.004l-42.308,42.606
		c-3,2.701-6.9,4.201-10.501,4.201c-3.901,0-7.801-1.5-10.803-4.201v-0.3l63.312-63.311L167.943,344.372L167.943,344.372z"/>
</g>
<g id="Capa_1">
	<path style="fill:#2BA3DF;" d="M154.776,158.948c-111.189,0-146.279,94.003-149.094,97.143c-2.446,4.847-2.217,10.626,0.642,15.258
		c2.844,4.632,7.889,7.46,13.331,7.46c64.258,5.682,104.352,9.227,101.149,8.943l53.251-128.806h-19.278V158.948z"/>
	<path style="fill:#2BA3DF;" d="M224.232,390.997c0.243,3.206,8.092,106.675,7.584,99.972c0,11.658,12.315,19.211,22.719,13.974
		c3.134-2.81,97.143-38.569,97.143-149.095V336.57L224.232,390.997z"/>
	<path style="fill:#2BA3DF;" d="M236.903,408.795c-16.594,8.455-33.19,16.596-48.845,24.424c-5.949,3.13-13.15,1.879-18.161-2.819
		L81.6,342.102c-4.696-5.009-5.949-12.21-2.817-18.159c7.828-15.655,15.969-32.251,24.422-48.845
		c5.011-9.706,41.33,11.898,46.341,1.879l85.478,85.478C225.005,367.464,246.609,403.786,236.903,408.795z"/>
	<path style="fill:#DDDDDD;" d="M493.966,160.5c-14.09,53.856-39.452,97.69-78.905,135.578
		c-46.026,44.461-119.608,83.286-178.159,112.718l-66.692-66.692l-67.005-67.004c29.432-58.552,68.26-132.446,112.721-178.159
		c37.885-39.452,81.722-64.814,135.578-78.905l31.622,11.585c0.627,27.241,11.585,51.977,29.432,69.822
		c17.847,17.847,42.584,28.807,69.825,29.432L493.966,160.5z"/>
	<path style="fill:#2BA3DF;" d="M369.347,142.651c-30.371-30.371-80.156-30.371-110.527,0c-30.373,30.686-30.373,79.844,0,110.529
		v0.313c30.371,30.371,80.156,30.371,110.527,0C400.033,222.807,400.033,173.338,369.347,142.651z"/>
	<path style="fill:#2BA3DF;" d="M493.966,160.5c-2.506,0-9.706-0.313-12.211-0.313c-36.009-0.625-67.944-15.028-91.427-38.511
		c-23.483-23.483-37.887-55.421-38.514-91.427c0-2.506-0.311-9.706-0.311-12.211C395.964,6.452,445.747,3.633,491.462,5.511
		c4.07,0,7.828,1.567,10.647,4.384c2.817,2.819,4.383,6.576,4.383,10.647C508.368,66.253,505.238,116.038,493.966,160.5z"/>
</g>
<g id="Layer_3" style="display:none;">
	<path style="display:inline;fill:#1887B2;" d="M493.966,160.5c-2.506,0-9.706-0.313-12.211-0.313
		c-36.009-0.625-67.944-15.028-91.427-38.511l111.78-111.78c2.817,2.819,4.382,6.576,4.382,10.647
		C508.368,66.253,505.238,116.038,493.966,160.5z"/>
	<path style="display:inline;fill:#1887B2;" d="M369.347,253.493c-30.371,30.371-80.156,30.371-110.527,0v-0.313l110.527-110.529
		C400.033,173.338,400.033,222.807,369.347,253.493z"/>
	<path style="display:inline;fill:#444444;" d="M236.276,297.642c-5.949,6.262-15.967,6.262-21.917,0l21.917-21.918
		C242.539,281.672,242.539,291.693,236.276,297.642z"/>
</g>
</svg>
