<?xml version="1.0" encoding="iso-8859-1"?>
<!-- Generator: Adobe Illustrator 21.1.0, SVG Export Plug-In . SVG Version: 6.00 Build 0)  -->
<svg version="1.1" id="Layer_1" xmlns="http://www.w3.org/2000/svg" xmlns:xlink="http://www.w3.org/1999/xlink" x="0px" y="0px"
	 viewBox="0 0 512 512" style="enable-background:new 0 0 512 512;" xml:space="preserve">
<style type="text/css">
	.st0{display:none;}
	.st1{display:inline;fill:#FFE470;}
	.st2{display:inline;}
	.st3{fill:#FFD400;}
	.st4{display:inline;fill:#FDBF00;}
	.st5{fill:#ABABAB;}
	.st6{fill:#FFFFFF;}
	.st7{display:inline;fill:#1887B2;}
	.st8{display:inline;fill:#444444;}
</style>
<g id="Layer_2" class="st0">
	<path class="st1" d="M206.048,392.379c-4.5,17.404-13.801,33.906-27.304,47.409c-31.206,30.906-146.653,67.741-159.555,71.641
		c-5.102,1.5-10.802,0-14.702-3.901c-3.901-3.901-5.403-9.602-3.901-15.003C4.487,479.924,41.62,364.774,72.524,333.57
		c13.502-13.502,30.005-22.804,47.409-27.306l42.907,42.909L206.048,392.379z"/>
	<g class="st2">
		<path class="st3" d="M162.841,349.173l43.207,43.205c-4.5,17.404-13.801,33.906-27.304,47.409
			c-31.206,30.906-146.653,67.741-159.555,71.641c-5.102,1.5-10.802,0-14.702-3.901L162.841,349.173z"/>
		<path class="st3" d="M167.943,365.375l-42.308,42.606c-3,2.701-6.9,4.201-10.501,4.201c-3.901,0-7.801-1.5-10.803-4.201v-0.3
			c-5.701-6-5.701-15.303,0-21.003l42.608-42.308c5.701-6.001,15.003-6.001,20.704,0h0.3
			C173.942,350.073,173.942,359.674,167.943,365.375z"/>
	</g>
	<path class="st4" d="M167.943,344.372c6,5.701,6,15.303,0,21.004l-42.308,42.606c-3,2.701-6.9,4.201-10.501,4.201
		c-3.901,0-7.801-1.5-10.803-4.201v-0.3l63.312-63.311L167.943,344.372L167.943,344.372z"/>
</g>
<path class="st5" d="M132.11,319.915c-69.392,69.392-32.625,149.957-32.422,153.673c1.498,4.551,5.248,8.015,9.923,9.122
	c4.666,1.116,9.579-0.268,12.975-3.664c43.649-36.556,70.883-59.366,68.707-57.544l-47.153-113.62l-12.031,12.031L132.11,319.915
	L132.11,319.915z"/>
<path class="st5" d="M320.275,421.387c2.152,1.849,71.624,61.524,67.124,57.658c7.276,7.276,19.675,4.304,22.9-5.458
	c0.202-3.71,36.555-84.696-32.423-153.674l-12.031-12.031L320.275,421.387z"/>
<path class="st5" d="M339.29,424.587c-5.079,15.633-10.356,31.071-15.241,45.726c-1.759,5.666-7.034,9.379-13.093,9.575
	l-110.211-0.001c-6.057-0.195-11.333-3.907-13.091-9.575c-4.885-14.655-10.161-30.093-15.242-45.725
	c-2.93-9.185,33.219-18.368,30.093-27.748h106.691C306.07,406.218,342.221,415.404,339.29,424.587z"/>
<path class="st6" d="M344.762,109.2c24.817,42.404,36.346,85.588,35.369,133.856c-0.977,56.472-22.668,126.623-40.841,181.532
	h-83.243l-83.633,0.001c-18.173-54.91-40.058-125.258-40.839-181.534c-0.978-48.265,10.552-91.451,35.369-133.856l26.965-12.505
	c17.392,16.609,39.668,25.208,61.943,25.207c22.276,0,44.554-8.598,61.945-25.209L344.762,109.2z"/>
<path class="st5" d="M255.85,175.834c-37.908,0-68.978,31.07-68.978,68.978c0.195,38.106,30.874,68.785,68.98,68.98l0.195,0.195
	c37.908,0,68.978-31.07,68.978-68.978C325.025,206.707,294.152,175.835,255.85,175.834z"/>
<path class="st5" d="M344.762,109.2c-1.564,1.564-6.253,5.862-7.816,7.425c-22.863,22.083-51.782,33.024-81.093,33.024
	s-58.232-10.943-81.094-33.022c-1.564-1.564-6.251-5.863-7.815-7.427c20.517-34.978,49.826-67.806,79.529-95.164
	c2.54-2.54,5.863-3.907,9.381-3.909c3.517,0.001,6.839,1.369,9.38,3.909C294.932,41.394,324.049,74.417,344.762,109.2z"/>
<g id="Layer_3" class="st0">
	<path class="st7" d="M493.966,160.5c-2.506,0-9.706-0.313-12.211-0.313c-36.009-0.625-67.944-15.028-91.427-38.511l111.78-111.78
		c2.817,2.819,4.382,6.576,4.382,10.647C508.368,66.253,505.238,116.038,493.966,160.5z"/>
	<path class="st7" d="M369.347,253.493c-30.371,30.371-80.156,30.371-110.527,0v-0.313l110.527-110.529
		C400.033,173.338,400.033,222.807,369.347,253.493z"/>
	<path class="st8" d="M236.276,297.642c-5.949,6.262-15.967,6.262-21.917,0l21.917-21.918
		C242.539,281.672,242.539,291.693,236.276,297.642z"/>
</g>
</svg>
